<?xml version="1.0" encoding="UTF-8"?>
<svg width="28px" height="28px" viewBox="0 0 28 28" version="1.1" xmlns="http://www.w3.org/2000/svg" xmlns:xlink="http://www.w3.org/1999/xlink">
    <!-- Generator: Sketch 61.1 (89650) - https://sketch.com -->
    <title>Img/Logo/CESTC_32_Logo</title>
    <desc>Created with Sketch.</desc>
    <g id="Img/Logo/CESTC_32_Logo" stroke="none" stroke-width="1" fill="none" fill-rule="evenodd">
        <path d="M14,3.30402372e-14 C21.7322035,3.30402372e-14 28.000337,6.26813356 28.000337,14 C28.000337,21.7318664 21.7322035,28 14,28 C6.26813356,28 0,21.7318664 0,14 C0,6.26813356 6.26813356,3.30402372e-14 14,3.30402372e-14 Z M24.358025,16.9621801 L23.0429235,16.9621801 C21.5525651,21.4234815 16.8216375,24.7176388 11.1766773,24.7833602 C9.07460459,24.8079636 7.08914514,24.3816173 5.34196779,23.6088014 C7.27046872,24.6081032 9.52488023,25.183081 11.9339897,25.183081 C17.8667758,25.183081 22.862274,21.7008594 24.358025,16.9621801 Z M20.6661691,16.9621801 L19.3780303,16.9621801 C17.9180048,20.4619273 13.9464118,22.9728207 9.27311683,22.9728207 C7.95498207,22.9728207 6.69313176,22.7719493 5.52699872,22.4069429 C6.99342786,23.0550567 8.65028046,23.4227593 10.4068947,23.4227593 C15.1883772,23.4227593 19.2415321,20.7147018 20.6661691,16.9621801 Z M17.0707046,16.9621801 L0.614747587,16.9621801 C1.9076049,19.9624449 5.10301163,22.0867618 8.84272611,22.0867618 C12.5827776,22.0867618 15.7781844,19.9624449 17.0707046,16.9621801 Z M14.8446039,11.513373 C13.1877513,11.513373 12.2521486,12.5588483 12.2521486,13.4172705 C12.2521486,14.5911553 14.2130046,14.3882616 14.2130046,14.948747 C14.2130046,15.2527504 13.8260911,15.2679169 13.5756759,15.2679169 C13.2538097,15.2679169 13.092371,15.1273743 13.1163003,14.8412335 C12.9475031,14.8412335 12.0875549,14.8372547 11.6952005,14.8359284 L11.6952005,14.8359284 L11.5251691,14.835504 C11.4698958,15.5409134 11.7159296,16.373047 13.2116806,16.373047 C14.8685332,16.373047 15.8934495,15.2288211 15.8934495,14.4361203 C15.8934495,13.3158237 13.9056309,13.5089434 13.9056309,12.9727244 C13.9056309,12.7546643 14.2109825,12.6815282 14.4880233,12.6815282 C14.7862972,12.6815282 14.907966,12.8331929 14.907966,13.0461975 L14.907966,13.0461975 L16.3504658,13.0461975 C16.3767544,12.359662 16.2530634,11.513373 14.8446039,11.513373 Z M24.1487277,11.513373 C23.7645105,11.513373 23.3907412,11.5790943 23.0260719,11.709526 C22.7395941,11.8150172 22.4561496,11.9710633 22.1764125,12.1769903 C21.8970124,12.3835913 21.6415417,12.6393991 21.4123595,12.9437396 C21.1828402,13.2480801 21.0032018,13.576687 20.8731072,13.9295602 C20.7184092,14.3451215 20.6597655,14.7232721 20.695154,15.063001 C20.7187462,15.3073497 20.7972749,15.5230506 20.9297287,15.7111149 C21.0638677,15.8995161 21.2600207,16.0447772 21.5178507,16.1492573 C21.778714,16.2513782 22.0857507,16.3026072 22.4376128,16.3026072 C22.790149,16.3026072 23.1187559,16.2503671 23.4251186,16.14555 C23.7328294,16.0397217 24.0189701,15.8904162 24.2835408,15.6979706 C24.5491225,15.506536 24.760442,15.3147644 24.9137919,15.1223188 C25.0674788,14.9302102 25.2120658,14.6936132 25.3475529,14.412191 L25.3475529,14.412191 L23.8912347,14.412191 C23.7736103,14.660247 23.6222827,14.8486483 23.4375888,14.9757096 C23.2532319,15.1007487 23.0446087,15.1624257 22.8117191,15.1624257 C22.6209586,15.1624257 22.4756975,15.1226558 22.3755988,15.0441272 C22.2781964,14.9629023 22.2239341,14.8398854 22.212475,14.6744024 C22.2013529,14.5102675 22.2542671,14.2699632 22.3718915,13.9548376 C22.5404078,13.4957991 22.7470088,13.164496 22.9900094,12.9592431 C23.2353692,12.7553384 23.4921881,12.6528804 23.759455,12.6528804 C23.9734707,12.6528804 24.1261465,12.7162426 24.2164713,12.8429669 C24.3101663,12.96868 24.327355,13.1456222 24.2693854,13.3724452 L24.2693854,13.3724452 L25.7004261,13.3724452 C25.7651364,13.1284335 25.7944582,12.9184622 25.7863694,12.7432052 C25.7782807,12.4971713 25.7149185,12.2804593 25.5949349,12.0923951 C25.4766364,11.9023087 25.2889092,11.7583957 25.0331014,11.6603192 C24.7759455,11.5622427 24.482053,11.513373 24.1487277,11.513373 Z M5.75314764,11.513373 C5.36859337,11.513373 4.99549821,11.5790943 4.63049183,11.709526 C4.34435109,11.8150172 4.06023255,11.9710633 3.77982137,12.1769903 C3.50042129,12.3835913 3.24596163,12.6393991 3.01745348,12.9437396 C2.78692313,13.2480801 2.60728472,13.576687 2.47752714,13.9295602 C2.32282915,14.3451215 2.26418546,14.7232721 2.29991093,15.063001 C2.32350321,15.3073497 2.40203183,15.5230506 2.53313753,15.7111149 C2.66828763,15.8995161 2.86477768,16.0447772 3.1229447,16.1492573 C3.38313392,16.2513782 3.69017068,16.3026072 4.04203279,16.3026072 C4.39423193,16.3026072 4.72418691,16.2503671 5.02886444,16.14555 C5.3379234,16.0397217 5.62406413,15.8904162 5.88762368,15.6979706 C6.15320542,15.506536 6.3645249,15.3147644 6.5172007,15.1223188 C6.6718987,14.9302102 6.81648571,14.6936132 6.95264691,14.412191 L6.95264691,14.412191 L5.49599172,14.412191 C5.37836732,14.660247 5.22670262,14.8486483 5.04200871,14.9757096 C4.85765185,15.1007487 4.64936566,15.1624257 4.41580202,15.1624257 C4.22470449,15.1624257 4.08011748,15.1226558 3.98035581,15.0441272 C3.88160524,14.9629023 3.82902814,14.8398854 3.81790606,14.6744024 C3.80543586,14.5102675 3.85868702,14.2699632 3.97563735,13.9548376 C4.14482775,13.4957991 4.35210284,13.1634849 4.59442933,12.9592431 C4.84012615,12.7543273 5.09593394,12.6528804 5.36320085,12.6528804 C5.57789066,12.6528804 5.72989239,12.7162426 5.82089121,12.8429669 C5.91458629,12.96868 5.93244902,13.1456222 5.87346831,13.3724452 L5.87346831,13.3724452 L7.30484605,13.3724452 C7.36989335,13.1284335 7.3982041,12.9184622 7.39078938,12.7432052 C7.38270059,12.4971713 7.31866439,12.2804593 7.19969186,12.0923951 C7.08105636,11.9016346 6.89400323,11.7583957 6.63718433,11.6603192 C6.38137654,11.5622427 6.08647295,11.513373 5.75314764,11.513373 Z M21.4578589,11.6003274 L17.1728255,11.6003274 L16.7431089,12.8780182 L18.0919136,12.8780182 L16.9635283,16.2375599 L18.5276969,16.2375599 L19.6560822,12.8780182 L21.0281422,12.8780182 L21.4578589,11.6003274 Z M12.2201305,11.6529045 L8.46558656,11.6529045 L6.78581574,16.1954308 L10.6320325,16.1954308 L11.0361347,15.1047931 L8.65297672,15.1047931 L8.91653627,14.392306 L10.8602037,14.392306 L11.2417246,13.3619972 L9.29738318,13.3619972 L9.53364308,12.7239943 L11.823106,12.7239943 L12.2201305,11.6529045 Z M19.1572739,5.91323816 C15.5211127,5.91323816 12.4000771,7.9211766 11.0414076,10.7898522 L10.9292954,11.0378199 L27.3852524,11.0378199 C26.0923951,8.03755507 22.8973254,5.91323816 19.1572739,5.91323816 Z M17.5931053,4.57724067 C12.9182075,4.57724067 8.93898248,7.16627736 7.4326804,10.7892174 L7.33383086,11.0378199 L8.62196972,11.0378199 C10.0823323,7.53807265 14.0535882,5.02717928 18.7272202,5.02717928 C20.0450179,5.02717928 21.3068682,5.22805075 22.4730013,5.59339416 C21.0069092,4.94494331 19.3497195,4.57724067 17.5931053,4.57724067 Z M16.0663473,2.81691904 C10.2430968,2.81691904 5.32339065,6.17136358 3.72899327,10.7758667 L3.64231204,11.0378199 L4.95741352,11.0378199 C6.44743494,6.57651845 11.1783625,3.28236115 16.8236597,3.21663978 C18.9253954,3.1920364 20.9111919,3.61838272 22.6583692,4.39119863 C20.7295313,3.39189677 18.4751198,2.81691904 16.0663473,2.81691904 Z" id="CESTC_32_Img" fill="#004EA2"></path>
    </g>
</svg>